<svg width="37" height="38" viewBox="0 0 37 38" fill="none" xmlns="http://www.w3.org/2000/svg">
<g clip-path="url(#clip0_439_503)">
<path d="M14 16L19 13V26C17.3497 26.3301 15.6503 26.3301 14 26V16Z" fill="#54AB51"/>
<path d="M7.5 19.5L12.5 16.5V26C10.5418 25.3473 8.81399 24.1425 7.52454 22.5307L7.5 22.5V19.5Z" fill="#009E54"/>
<path d="M20 12L25 9V21.5L24.2237 22.4315C23.0924 23.7891 21.6408 24.8437 20 25.5V12Z" fill="#96C344"/>
<path d="M24.7928 2.84735C22.3892 1.1083 19.5239 0.121046 16.5593 0.0104302C13.5946 -0.100185 10.6637 0.670806 8.13727 2.22591C5.61079 3.78101 3.60219 6.05037 2.36547 8.74703C1.12875 11.4437 0.719454 14.4465 1.18934 17.3758L3.31622 17.0346C2.91381 14.526 3.26433 11.9544 4.32345 9.64498C5.38257 7.33558 7.10273 5.39211 9.26639 4.06032C11.4301 2.72854 13.94 2.06827 16.479 2.163C19.0179 2.25773 21.4717 3.10321 23.5301 4.59252L24.7928 2.84735Z" fill="#333333"/>
<path d="M1.5 18.5C2.11353 20.635 3.27662 23.2499 4.74523 24.9166C6.21384 26.5834 8.03432 27.9031 10.0752 28.7805C12.116 29.6579 14.3262 30.071 16.5462 29.99C18.7661 29.9091 20.9404 29.3361 22.9119 28.3124C24.8834 27.2887 26.603 25.8399 27.9463 24.0706C29.2896 22.3014 30.2232 20.2558 30.6796 18.0818C31.136 15.9077 31.1038 13.6594 30.5854 11.4993C30.0669 9.33923 29.0752 7.32125 27.6818 5.59116L26.0042 6.94231C27.1975 8.42395 28.0468 10.1521 28.4908 12.002C28.9348 13.8519 28.9623 15.7774 28.5715 17.6392C28.1806 19.5011 27.3811 21.2529 26.2307 22.768C25.0803 24.2832 23.6077 25.524 21.9193 26.4007C20.2309 27.2773 18.3689 27.7681 16.4677 27.8374C14.5665 27.9067 12.6737 27.5529 10.9259 26.8015C9.17817 26.0501 7.61912 24.9199 6.3614 23.4926C5.10369 22.0652 4.17871 20.3763 3.65329 18.5478L2.5 18L1.5 18.5Z" fill="#333333"/>
<rect x="1.59375" y="18.5803" width="31.0617" height="2.03051" transform="rotate(-31.3861 1.59375 18.5803)" fill="#333333"/>
<path d="M25.5 1L34.5 0L29 7V3L25.5 1Z" fill="#404042"/>
<path d="M28 2H30V4H28V2Z" fill="#404042"/>
<rect x="25.8018" y="29.6434" width="4.71712" height="11.7678" rx="2.35856" transform="rotate(-44.5535 25.8018 29.6434)" fill="#333333"/>
<path d="M24 26.5L26 25L29 28L27.5 30L24 26.5Z" fill="#333333"/>
</g>
<defs>
<clipPath id="clip0_439_503">
<rect width="37" height="38" fill="white"/>
</clipPath>
</defs>
</svg>
