<svg width="139" height="50" viewBox="0 0 139 50" fill="none" xmlns="http://www.w3.org/2000/svg">
<path d="M33 23L38 20V33V33C36.3497 33.3301 34.6503 33.3301 33 33V33V23Z" fill="#54AB51"/>
<path d="M26.5 26.5L31.5 23.5V33V33C29.5418 32.3473 27.814 31.1425 26.5245 29.5307L26.5 29.5V26.5Z" fill="#009E54"/>
<path d="M39 19L44 16V28.5L43.2237 29.4315C42.0924 30.7891 40.6408 31.8437 39 32.5V32.5V19Z" fill="#96C344"/>
<path d="M43.7928 9.84735C41.3892 8.1083 38.5239 7.12105 35.5593 7.01043C32.5946 6.89981 29.6637 7.67081 27.1373 9.22591C24.6108 10.781 22.6022 13.0504 21.3655 15.747C20.1288 18.4437 19.7195 21.4465 20.1893 24.3758L22.3162 24.0346C21.9138 21.526 22.2643 18.9544 23.3234 16.645C24.3826 14.3356 26.1027 12.3921 28.2664 11.0603C30.4301 9.72854 32.94 9.06827 35.479 9.163C38.0179 9.25773 40.4717 10.1032 42.5301 11.5925L43.7928 9.84735Z" fill="#333333"/>
<path d="M20.5 25.5C21.1135 27.635 22.2766 30.2499 23.7452 31.9166C25.2138 33.5834 27.0343 34.9031 29.0752 35.7805C31.116 36.6579 33.3262 37.071 35.5462 36.99C37.7662 36.9091 39.9404 36.3361 41.9119 35.3124C43.8834 34.2887 45.603 32.8399 46.9463 31.0706C48.2896 29.3014 49.2232 27.2558 49.6796 25.0818C50.136 22.9077 50.1038 20.6594 49.5854 18.4993C49.0669 16.3392 48.0752 14.3213 46.6818 12.5912L45.0042 13.9423C46.1975 15.424 47.0468 17.1521 47.4908 19.002C47.9348 20.8519 47.9623 22.7774 47.5715 24.6392C47.1806 26.5011 46.3811 28.2529 45.2307 29.768C44.0803 31.2832 42.6077 32.524 40.9193 33.4007C39.2309 34.2773 37.3689 34.7681 35.4677 34.8374C33.5665 34.9067 31.6737 34.5529 29.9259 33.8015C28.1782 33.0501 26.6191 31.9199 25.3614 30.4926C24.1037 29.0652 23.1787 27.3763 22.6533 25.5478L21.5 25L20.5 25.5Z" fill="#333333"/>
<rect x="20.5938" y="25.5803" width="31.0617" height="2.03051" transform="rotate(-31.3861 20.5938 25.5803)" fill="#333333"/>
<path d="M44.5 8L53.5 7L48 14V10L44.5 8Z" fill="#404042"/>
<path d="M47 9H49V11H47V9Z" fill="#404042"/>
<rect x="44.8018" y="36.6434" width="4.71712" height="11.7678" rx="2.35856" transform="rotate(-44.5535 44.8018 36.6434)" fill="#333333"/>
<path d="M43 33.5L45 32L48 35L46.5 37L43 33.5Z" fill="#333333"/>
<path d="M68.9 18.44V26H67.46V19.82H64.22V26H62.78V18.44H68.9ZM69.7358 20.48H71.1758L72.5558 24.08L73.8158 20.48H75.2558C74.8638 21.488 74.5078 22.4 74.1878 23.216C74.0518 23.568 73.9158 23.912 73.7798 24.248C73.6518 24.584 73.5358 24.892 73.4318 25.172C73.3278 25.444 73.2398 25.672 73.1678 25.856C73.0958 26.04 73.0518 26.148 73.0358 26.18C72.8998 26.508 72.7638 26.784 72.6278 27.008C72.4998 27.24 72.3598 27.428 72.2078 27.572C72.0558 27.716 71.8918 27.82 71.7158 27.884C71.5398 27.948 71.3398 27.98 71.1158 27.98C71.0518 27.98 70.9878 27.976 70.9238 27.968C70.8678 27.968 70.8198 27.964 70.7798 27.956C70.7238 27.948 70.6758 27.936 70.6358 27.92V26.78C70.9398 26.78 71.1718 26.712 71.3318 26.576C71.4998 26.44 71.6278 26.268 71.7158 26.06L71.8358 25.76L69.7358 20.48ZM78.7325 20.78C79.0765 20.78 79.3965 20.844 79.6925 20.972C79.9965 21.092 80.2565 21.268 80.4725 21.5C80.6965 21.724 80.8725 22 81.0005 22.328C81.1285 22.648 81.1925 23.012 81.1925 23.42C81.1925 23.796 81.1245 24.144 80.9885 24.464C80.8525 24.784 80.6645 25.064 80.4245 25.304C80.1845 25.536 79.9005 25.72 79.5725 25.856C79.2445 25.992 78.8845 26.06 78.4925 26.06C78.1005 26.06 77.7365 25.988 77.4005 25.844C77.0645 25.692 76.7725 25.476 76.5245 25.196C76.2765 24.908 76.0805 24.556 75.9365 24.14C75.8005 23.724 75.7325 23.244 75.7325 22.7C75.7325 21.924 75.8165 21.26 75.9845 20.708C76.1525 20.148 76.4245 19.688 76.8005 19.328C77.1765 18.968 77.6645 18.7 78.2645 18.524C78.8645 18.34 79.6005 18.232 80.4725 18.2V19.52C79.8405 19.536 79.3165 19.588 78.9005 19.676C78.4925 19.764 78.1605 19.892 77.9045 20.06C77.6565 20.228 77.4725 20.432 77.3525 20.672C77.2405 20.912 77.1605 21.188 77.1125 21.5C77.2245 21.364 77.3605 21.244 77.5205 21.14C77.6565 21.052 77.8245 20.972 78.0245 20.9C78.2245 20.82 78.4605 20.78 78.7325 20.78ZM79.8125 23.42C79.8125 23.244 79.7765 23.076 79.7045 22.916C79.6325 22.756 79.5365 22.616 79.4165 22.496C79.2965 22.376 79.1565 22.28 78.9965 22.208C78.8365 22.136 78.6685 22.1 78.4925 22.1C78.3085 22.1 78.1365 22.136 77.9765 22.208C77.8165 22.28 77.6765 22.376 77.5565 22.496C77.4365 22.616 77.3405 22.756 77.2685 22.916C77.2045 23.076 77.1725 23.244 77.1725 23.42C77.1725 23.604 77.2045 23.776 77.2685 23.936C77.3405 24.096 77.4365 24.236 77.5565 24.356C77.6765 24.476 77.8165 24.572 77.9765 24.644C78.1365 24.708 78.3085 24.74 78.4925 24.74C78.6685 24.74 78.8365 24.708 78.9965 24.644C79.1565 24.572 79.2965 24.476 79.4165 24.356C79.5365 24.236 79.6325 24.096 79.7045 23.936C79.7765 23.776 79.8125 23.604 79.8125 23.42ZM86.7697 20.48V26H85.3897V21.8H83.8897L83.7097 24.2C83.6617 24.8 83.4777 25.26 83.1577 25.58C82.8377 25.9 82.4017 26.06 81.8497 26.06C81.7857 26.06 81.7297 26.056 81.6817 26.048C81.6337 26.048 81.5897 26.044 81.5497 26.036C81.5097 26.028 81.4697 26.016 81.4297 26V24.86H81.6097C81.8497 24.86 82.0297 24.796 82.1497 24.668C82.2777 24.54 82.3577 24.324 82.3897 24.02L82.6897 20.48H86.7697ZM93.1297 20.48V26H91.7497V22.52L89.4097 26H88.0897V20.48H89.4697V23.96L91.8097 20.48H93.1297ZM99.133 20.48V26H97.753V24.2C97.617 24.272 97.473 24.332 97.321 24.38C97.185 24.428 97.029 24.472 96.853 24.512C96.685 24.544 96.505 24.56 96.313 24.56C96.025 24.56 95.761 24.512 95.521 24.416C95.281 24.312 95.073 24.168 94.897 23.984C94.721 23.8 94.581 23.58 94.477 23.324C94.381 23.06 94.333 22.772 94.333 22.46V20.48H95.713V22.28C95.713 22.584 95.797 22.82 95.965 22.988C96.133 23.156 96.369 23.24 96.673 23.24C96.825 23.24 96.965 23.224 97.093 23.192C97.229 23.152 97.345 23.108 97.441 23.06C97.553 23.012 97.657 22.952 97.753 22.88V20.48H99.133ZM105.433 20.48V26H104.053V23.84H101.833V26H100.453V20.48H101.833V22.52H104.053V20.48H105.433ZM113.058 20.48V26H111.678V20.48H113.058ZM109.218 22.28C109.49 22.28 109.742 22.332 109.974 22.436C110.206 22.532 110.406 22.664 110.574 22.832C110.75 23 110.886 23.196 110.982 23.42C111.086 23.644 111.138 23.884 111.138 24.14C111.138 24.396 111.086 24.636 110.982 24.86C110.886 25.084 110.75 25.28 110.574 25.448C110.406 25.616 110.206 25.752 109.974 25.856C109.742 25.952 109.49 26 109.218 26H106.758V20.48H108.138V22.28H109.218ZM109.038 24.8C109.246 24.8 109.418 24.736 109.554 24.608C109.69 24.48 109.758 24.324 109.758 24.14C109.758 23.956 109.69 23.8 109.554 23.672C109.418 23.544 109.246 23.48 109.038 23.48H108.138V24.8H109.038ZM115.155 26H113.655L115.515 23.18L113.775 20.48H115.275L116.355 22.22L117.435 20.48H118.935L117.195 23.18L119.055 26H117.555L116.355 24.14L115.155 26Z" fill="#333333"/>
<path d="M63.44 16H61.94L64.76 8.44H66.08L68.9 16H67.4L66.86 14.44H63.98L63.44 16ZM66.38 13.12L65.42 10.36L64.46 13.12H66.38ZM74.4838 10.48V16H73.1038V13.84H70.8838V16H69.5038V10.48H70.8838V12.52H73.1038V10.48H74.4838ZM78.0884 10.42C78.4004 10.42 78.6884 10.476 78.9524 10.588C79.2164 10.692 79.4444 10.84 79.6364 11.032C79.8284 11.224 79.9764 11.452 80.0804 11.716C80.1924 11.98 80.2484 12.268 80.2484 12.58V16H79.2284L78.9884 15.46C78.8604 15.572 78.7204 15.672 78.5684 15.76C78.4324 15.84 78.2684 15.912 78.0764 15.976C77.8844 16.032 77.6684 16.06 77.4284 16.06C76.8284 16.06 76.3684 15.916 76.0484 15.628C75.7284 15.332 75.5684 14.956 75.5684 14.5C75.5684 14.228 75.6204 13.98 75.7244 13.756C75.8364 13.524 76.0204 13.328 76.2764 13.168C76.5324 13 76.8684 12.872 77.2844 12.784C77.7084 12.688 78.2364 12.64 78.8684 12.64C78.8684 12.336 78.7844 12.1 78.6164 11.932C78.4564 11.764 78.2404 11.68 77.9684 11.68C77.7844 11.68 77.6364 11.712 77.5244 11.776C77.4204 11.84 77.3364 11.908 77.2724 11.98C77.2004 12.068 77.1524 12.168 77.1284 12.28H75.7484C75.7804 12.024 75.8524 11.784 75.9644 11.56C76.0844 11.336 76.2444 11.14 76.4444 10.972C76.6444 10.804 76.8804 10.672 77.1524 10.576C77.4324 10.472 77.7444 10.42 78.0884 10.42ZM77.6684 14.98C78.0284 14.98 78.3164 14.876 78.5324 14.668C78.7564 14.452 78.8684 14.176 78.8684 13.84V13.6C78.4604 13.6 78.1324 13.62 77.8844 13.66C77.6364 13.692 77.4404 13.744 77.2964 13.816C77.1604 13.88 77.0684 13.96 77.0204 14.056C76.9724 14.152 76.9484 14.26 76.9484 14.38C76.9484 14.532 77.0164 14.672 77.1524 14.8C77.2884 14.92 77.4604 14.98 77.6684 14.98ZM86.1838 10.48V16H84.8038V11.8H83.3038L83.1238 14.2C83.0758 14.8 82.8918 15.26 82.5718 15.58C82.2518 15.9 81.8158 16.06 81.2638 16.06C81.1998 16.06 81.1438 16.056 81.0958 16.048C81.0478 16.048 81.0038 16.044 80.9638 16.036C80.9238 16.028 80.8838 16.016 80.8438 16V14.86H81.0238C81.2638 14.86 81.4438 14.796 81.5638 14.668C81.6918 14.54 81.7718 14.324 81.8038 14.02L82.1038 10.48H86.1838ZM92.5438 10.48V16H91.1638V12.52L88.8238 16H87.5038V10.48H88.8838V13.96L91.2238 10.48H92.5438ZM97.047 13.18C97.191 13.268 97.319 13.372 97.431 13.492C97.527 13.596 97.615 13.724 97.695 13.876C97.783 14.02 97.827 14.188 97.827 14.38C97.827 14.604 97.779 14.82 97.683 15.028C97.587 15.228 97.447 15.404 97.263 15.556C97.087 15.708 96.867 15.832 96.603 15.928C96.347 16.016 96.055 16.06 95.727 16.06C95.031 16.06 94.503 15.896 94.143 15.568C93.783 15.24 93.571 14.804 93.507 14.26H94.767C94.783 14.388 94.827 14.5 94.899 14.596C94.963 14.684 95.055 14.76 95.175 14.824C95.295 14.888 95.459 14.92 95.667 14.92C95.939 14.92 96.147 14.86 96.291 14.74C96.435 14.612 96.507 14.472 96.507 14.32C96.507 14.168 96.443 14.04 96.315 13.936C96.187 13.832 95.971 13.78 95.667 13.78H95.127V12.7H95.667C95.907 12.7 96.087 12.648 96.207 12.544C96.327 12.44 96.387 12.312 96.387 12.16C96.387 11.976 96.327 11.832 96.207 11.728C96.087 11.616 95.907 11.56 95.667 11.56C95.483 11.56 95.335 11.592 95.223 11.656C95.119 11.72 95.035 11.788 94.971 11.86C94.899 11.948 94.851 12.048 94.827 12.16H93.567C93.631 11.648 93.839 11.232 94.191 10.912C94.551 10.584 95.063 10.42 95.727 10.42C96.015 10.42 96.279 10.468 96.519 10.564C96.759 10.66 96.967 10.788 97.143 10.948C97.319 11.1 97.455 11.28 97.551 11.488C97.655 11.688 97.707 11.892 97.707 12.1C97.707 12.3 97.671 12.468 97.599 12.604C97.535 12.732 97.459 12.84 97.371 12.928C97.275 13.024 97.167 13.108 97.047 13.18Z" fill="#333333"/>
<path d="M69.44 34.62V37.44H68V36H63.44V37.44H62V34.62H62.42C62.556 34.556 62.68 34.468 62.792 34.356C62.888 34.26 62.98 34.132 63.068 33.972C63.164 33.804 63.228 33.6 63.26 33.36L63.86 28.44H68.6V34.62H69.44ZM67.16 29.82H65.06L64.64 33.36C64.608 33.6 64.556 33.804 64.484 33.972C64.42 34.132 64.356 34.26 64.292 34.356C64.212 34.468 64.128 34.556 64.04 34.62H67.16V29.82ZM72.5572 30.42C72.8692 30.42 73.1572 30.476 73.4212 30.588C73.6852 30.692 73.9132 30.84 74.1052 31.032C74.2972 31.224 74.4452 31.452 74.5492 31.716C74.6612 31.98 74.7172 32.268 74.7172 32.58V36H73.6972L73.4572 35.46C73.3292 35.572 73.1892 35.672 73.0372 35.76C72.9012 35.84 72.7372 35.912 72.5452 35.976C72.3532 36.032 72.1372 36.06 71.8972 36.06C71.2972 36.06 70.8372 35.916 70.5172 35.628C70.1972 35.332 70.0372 34.956 70.0372 34.5C70.0372 34.228 70.0892 33.98 70.1932 33.756C70.3052 33.524 70.4892 33.328 70.7452 33.168C71.0012 33 71.3372 32.872 71.7532 32.784C72.1772 32.688 72.7052 32.64 73.3372 32.64C73.3372 32.336 73.2532 32.1 73.0852 31.932C72.9252 31.764 72.7092 31.68 72.4372 31.68C72.2532 31.68 72.1052 31.712 71.9932 31.776C71.8892 31.84 71.8052 31.908 71.7412 31.98C71.6692 32.068 71.6212 32.168 71.5972 32.28H70.2172C70.2492 32.024 70.3212 31.784 70.4332 31.56C70.5532 31.336 70.7132 31.14 70.9132 30.972C71.1132 30.804 71.3492 30.672 71.6212 30.576C71.9012 30.472 72.2132 30.42 72.5572 30.42ZM72.1372 34.98C72.4972 34.98 72.7852 34.876 73.0012 34.668C73.2252 34.452 73.3372 34.176 73.3372 33.84V33.6C72.9292 33.6 72.6012 33.62 72.3532 33.66C72.1052 33.692 71.9092 33.744 71.7652 33.816C71.6292 33.88 71.5372 33.96 71.4892 34.056C71.4412 34.152 71.4172 34.26 71.4172 34.38C71.4172 34.532 71.4852 34.672 71.6212 34.8C71.7572 34.92 71.9292 34.98 72.1372 34.98ZM80.9525 30.48V36H79.5725V33.84H77.3525V36H75.9725V30.48H77.3525V32.52H79.5725V30.48H80.9525ZM87.2572 30.48V36H85.8772V33.84H83.6572V36H82.2772V30.48H83.6572V32.52H85.8772V30.48H87.2572ZM94.8819 30.48V36H93.5019V30.48H94.8819ZM91.0419 32.28C91.3139 32.28 91.5659 32.332 91.7979 32.436C92.0299 32.532 92.2299 32.664 92.3979 32.832C92.5739 33 92.7099 33.196 92.8059 33.42C92.9099 33.644 92.9619 33.884 92.9619 34.14C92.9619 34.396 92.9099 34.636 92.8059 34.86C92.7099 35.084 92.5739 35.28 92.3979 35.448C92.2299 35.616 92.0299 35.752 91.7979 35.856C91.5659 35.952 91.3139 36 91.0419 36H88.5819V30.48H89.9619V32.28H91.0419ZM90.8619 34.8C91.0699 34.8 91.2419 34.736 91.3779 34.608C91.5139 34.48 91.5819 34.324 91.5819 34.14C91.5819 33.956 91.5139 33.8 91.3779 33.672C91.2419 33.544 91.0699 33.48 90.8619 33.48H89.9619V34.8H90.8619ZM96.9791 36H95.4791L97.3391 33.18L95.5991 30.48H97.0991L98.1791 32.22L99.2591 30.48H100.759L99.0191 33.18L100.879 36H99.3791L98.1791 34.14L96.9791 36Z" fill="#333333"/>
</svg>
