<svg width="76" height="50" viewBox="0 0 76 50" fill="none" xmlns="http://www.w3.org/2000/svg">
<path d="M33 23L38 20V33V33C36.3497 33.3301 34.6503 33.3301 33 33V33V23Z" fill="#54AB51"/>
<path d="M26.5 26.5L31.5 23.5V33V33C29.5418 32.3473 27.814 31.1425 26.5245 29.5307L26.5 29.5V26.5Z" fill="#009E54"/>
<path d="M39 19L44 16V28.5L43.2237 29.4315C42.0924 30.7891 40.6408 31.8437 39 32.5V32.5V19Z" fill="#96C344"/>
<path d="M43.7928 9.84735C41.3892 8.1083 38.5239 7.12105 35.5593 7.01043C32.5946 6.89981 29.6637 7.67081 27.1373 9.22591C24.6108 10.781 22.6022 13.0504 21.3655 15.747C20.1288 18.4437 19.7195 21.4465 20.1893 24.3758L22.3162 24.0346C21.9138 21.526 22.2643 18.9544 23.3234 16.645C24.3826 14.3356 26.1027 12.3921 28.2664 11.0603C30.4301 9.72854 32.94 9.06827 35.479 9.163C38.0179 9.25773 40.4717 10.1032 42.5301 11.5925L43.7928 9.84735Z" fill="#333333"/>
<path d="M20.5 25.5C21.1135 27.635 22.2766 30.2499 23.7452 31.9166C25.2138 33.5834 27.0343 34.9031 29.0752 35.7805C31.116 36.6579 33.3262 37.071 35.5462 36.99C37.7662 36.9091 39.9404 36.3361 41.9119 35.3124C43.8834 34.2887 45.603 32.8399 46.9463 31.0706C48.2896 29.3014 49.2232 27.2558 49.6796 25.0818C50.136 22.9077 50.1038 20.6594 49.5854 18.4993C49.0669 16.3392 48.0752 14.3213 46.6818 12.5912L45.0042 13.9423C46.1975 15.424 47.0468 17.1521 47.4908 19.002C47.9348 20.8519 47.9623 22.7774 47.5715 24.6392C47.1806 26.5011 46.3811 28.2529 45.2307 29.768C44.0803 31.2832 42.6077 32.524 40.9193 33.4007C39.2309 34.2773 37.3689 34.7681 35.4677 34.8374C33.5665 34.9067 31.6737 34.5529 29.9259 33.8015C28.1782 33.0501 26.6191 31.9199 25.3614 30.4926C24.1037 29.0652 23.1787 27.3763 22.6533 25.5478L21.5 25L20.5 25.5Z" fill="#333333"/>
<rect x="20.5938" y="25.5803" width="31.0617" height="2.03051" transform="rotate(-31.3861 20.5938 25.5803)" fill="#333333"/>
<path d="M44.5 8L53.5 7L48 14V10L44.5 8Z" fill="#404042"/>
<path d="M47 9H49V11H47V9Z" fill="#404042"/>
<rect x="44.8018" y="36.6434" width="4.71712" height="11.7678" rx="2.35856" transform="rotate(-44.5535 44.8018 36.6434)" fill="#333333"/>
<path d="M43 33.5L45 32L48 35L46.5 37L43 33.5Z" fill="#333333"/>
</svg>
